# xmcd
#
# Track frame offsets:
#	150
#	15968
#	34813
#	47870
#	64320
#	86145
#	98390
#	116673
#	132688
#	146598
#	169610
#	186035
#
# Disc length: 2690 seconds
#
# Revision: 1
# Processed by: cddbd v1.5PL3 Copyright (c) Steve Scherf et al.
# Submitted via: audiograbber 1.82.02
#
DISCID=a10a800c
DTITLE=John McGlynn - Songs for a Fallen Angel
DYEAR=2000
DGENRE=Ballad
TTITLE0=If all she has is you
TTITLE1=She took my hand
TTITLE2=I know you hear me
TTITLE3=What if
TTITLE4=Fallen angel
TTITLE5=Face the wall
TTITLE6=In your eyes
TTITLE7=If I looked any better
TTITLE8=Swimming in the barrow
TTITLE9=Justified
TTITLE10=The fisher king
TTITLE11=Now and forever
EXTD=
EXTT0=
EXTT1=
EXTT2=
EXTT3=
EXTT4=
EXTT5=
EXTT6=
EXTT7=
EXTT8=
EXTT9=
EXTT10=
EXTT11=
PLAYORDER=
